<svg width="60" height="60" viewBox="0 0 60 60" fill="none" xmlns="http://www.w3.org/2000/svg">
<circle cx="30" cy="30" r="30" fill="#FBAF39"/>
<path d="M29.1282 42.6924V21.2524C29.1068 21.2737 28.8615 21.3377 28.3922 21.4444C27.9442 21.551 27.4322 21.6577 26.8562 21.7644C26.2802 21.871 25.7682 21.967 25.3202 22.0524C24.8722 22.1377 24.6375 22.1804 24.6162 22.1804V19.5884C24.9788 19.503 25.3948 19.3857 25.8642 19.2364C26.3548 19.087 26.8455 18.9057 27.3362 18.6924C27.8482 18.479 28.3282 18.2124 28.7762 17.8924C29.2455 17.5724 29.6402 17.199 29.9602 16.7724H32.5522V42.6924H29.1282Z" fill="white"/>
</svg>
