<svg width="60" height="60" viewBox="0 0 60 60" fill="none" xmlns="http://www.w3.org/2000/svg">
<circle cx="30" cy="30" r="30" fill="#FBAF39"/>
<path d="M23.6713 42.6924V40.2604L30.2633 29.9884C30.754 29.2204 31.202 28.5057 31.6073 27.8444C32.034 27.183 32.3753 26.4897 32.6313 25.7644C32.9086 25.0177 33.0473 24.1644 33.0473 23.2044C33.0473 22.0097 32.8553 21.071 32.4713 20.3884C32.0873 19.7057 31.4153 19.3644 30.4553 19.3644C29.6446 19.3644 29.0153 19.5884 28.5673 20.0364C28.1193 20.4844 27.81 21.071 27.6393 21.7964C27.4686 22.5217 27.3833 23.3004 27.3833 24.1324V24.9964H23.9593V24.1004C23.9593 22.543 24.162 21.2097 24.5673 20.1004C24.994 18.9697 25.666 18.095 26.5833 17.4764C27.522 16.8577 28.7593 16.5484 30.2953 16.5484C32.386 16.5484 33.9433 17.1457 34.9673 18.3404C35.9913 19.5137 36.5033 21.1457 36.5033 23.2364C36.5033 24.3457 36.3646 25.3164 36.0873 26.1484C35.8313 26.9804 35.49 27.759 35.0633 28.4844C34.6366 29.2097 34.1673 29.9564 33.6553 30.7244L27.7033 39.8124H35.8953V42.6924H23.6713Z" fill="white"/>
</svg>
