<svg width="60" height="60" viewBox="0 0 60 60" fill="none" xmlns="http://www.w3.org/2000/svg">
<circle cx="30" cy="30" r="30" fill="#FBAF39"/>
<path d="M29.9909 42.9804C28.5829 42.9804 27.4096 42.7137 26.4709 42.1804C25.5323 41.647 24.8283 40.879 24.3589 39.8764C23.8896 38.8737 23.6549 37.6897 23.6549 36.3244V35.4604H27.0469C27.0469 35.5457 27.0469 35.6417 27.0469 35.7484C27.0469 35.8337 27.0469 35.9297 27.0469 36.0364C27.0683 36.8044 27.1536 37.4977 27.3029 38.1164C27.4736 38.735 27.7616 39.2257 28.1669 39.5884C28.5936 39.951 29.2016 40.1324 29.9909 40.1324C30.8229 40.1324 31.4523 39.9404 31.8789 39.5564C32.3056 39.151 32.5936 38.5857 32.7429 37.8604C32.8923 37.135 32.9669 36.303 32.9669 35.3644C32.9669 33.999 32.7109 32.8897 32.1989 32.0364C31.7083 31.1617 30.8336 30.6817 29.5749 30.5964C29.5109 30.575 29.4256 30.5644 29.3189 30.5644C29.2336 30.5644 29.1589 30.5644 29.0949 30.5644V27.1404C29.1589 27.1404 29.2336 27.1404 29.3189 27.1404C29.4043 27.1404 29.4789 27.1404 29.5429 27.1404C30.7589 27.0977 31.6336 26.7777 32.1669 26.1804C32.7003 25.583 32.9669 24.591 32.9669 23.2044C32.9669 22.031 32.7643 21.0924 32.3589 20.3884C31.9749 19.6844 31.1963 19.3324 30.0229 19.3324C28.8496 19.3324 28.0709 19.727 27.6869 20.5164C27.3029 21.2844 27.0896 22.2764 27.0469 23.4924C27.0469 23.5777 27.0469 23.6737 27.0469 23.7804C27.0469 23.8657 27.0469 23.951 27.0469 24.0364H23.6549V23.1724C23.6549 21.7857 23.8896 20.6017 24.3589 19.6204C24.8283 18.639 25.5323 17.8817 26.4709 17.3484C27.4309 16.815 28.6149 16.5484 30.0229 16.5484C31.4523 16.5484 32.6363 16.815 33.5749 17.3484C34.5136 17.8817 35.2176 18.6497 35.6869 19.6524C36.1563 20.6337 36.3909 21.8177 36.3909 23.2044C36.3909 24.7617 36.0496 26.0097 35.3669 26.9484C34.7056 27.887 33.8096 28.527 32.6789 28.8684C33.4683 29.103 34.1296 29.5084 34.6629 30.0844C35.2176 30.6604 35.6443 31.3964 35.9429 32.2924C36.2416 33.167 36.3909 34.191 36.3909 35.3644C36.3909 36.9004 36.1776 38.2444 35.7509 39.3964C35.3243 40.527 34.6416 41.4124 33.7029 42.0524C32.7643 42.671 31.5269 42.9804 29.9909 42.9804Z" fill="white"/>
</svg>
