<!DOCTYPE svg PUBLIC "-//W3C//DTD SVG 1.1//EN" "http://www.w3.org/Graphics/SVG/1.1/DTD/svg11.dtd">
<!-- Uploaded to: SVG Repo, www.svgrepo.com, Transformed by: SVG Repo Mixer Tools -->
<svg fill="#FBAF39" width="800px" height="800px" viewBox="0 0 32 32" data-name="Layer 2" id="Layer_2" xmlns="http://www.w3.org/2000/svg">
<g id="SVGRepo_bgCarrier" stroke-width="0"/>
<g id="SVGRepo_tracerCarrier" stroke-linecap="round" stroke-linejoin="round"/>
<g id="SVGRepo_iconCarrier">
<title/>
<path d="M20.65,26.08l-.06-.18-.08-.16-.12-.14a.92.92,0,0,0-1.32,0l-.12.14-.08.16a1.27,1.27,0,0,0,0,.18.6.6,0,0,0,0,.19.92.92,0,0,0,.07.35,1,1,0,0,0,.21.3.82.82,0,0,0,.3.21,1,1,0,0,0,.36.07l.18,0,.18-.06.16-.08a.59.59,0,0,0,.14-.12.82.82,0,0,0,.21-.3.92.92,0,0,0,.07-.35A1.23,1.23,0,0,0,20.65,26.08Z"/>
<path d="M13.18,26.08l-.06-.18L13,25.74l-.12-.14a.92.92,0,0,0-1.32,0l-.12.14-.08.16a1.27,1.27,0,0,0,0,.18.6.6,0,0,0,0,.19.92.92,0,0,0,.07.35,1,1,0,0,0,.21.3.82.82,0,0,0,.3.21,1,1,0,0,0,.36.07l.18,0,.18-.06.16-.08a.59.59,0,0,0,.14-.12.82.82,0,0,0,.21-.3.92.92,0,0,0,.07-.35A1.23,1.23,0,0,0,13.18,26.08Z"/>
<path d="M9.45,22.34l-.06-.18L9.31,22l-.12-.14a.92.92,0,0,0-1.32,0L7.75,22l-.08.16a1.27,1.27,0,0,0,0,.18.6.6,0,0,0,0,.19.92.92,0,0,0,.07.35,1,1,0,0,0,.21.3.82.82,0,0,0,.3.21,1,1,0,0,0,.36.07l.18,0,.18-.06L9,23.3a.59.59,0,0,0,.14-.12.82.82,0,0,0,.21-.3.92.92,0,0,0,.07-.35A1.23,1.23,0,0,0,9.45,22.34Z"/>
<path d="M16.92,22.34l-.06-.18L16.78,22l-.12-.14a.92.92,0,0,0-1.32,0l-.12.14-.08.16a1.27,1.27,0,0,0,0,.18.6.6,0,0,0,0,.19.92.92,0,0,0,.07.35,1,1,0,0,0,.21.3.82.82,0,0,0,.3.21,1,1,0,0,0,.36.07l.18,0,.18-.06.16-.08a.59.59,0,0,0,.14-.12.82.82,0,0,0,.21-.3.92.92,0,0,0,.07-.35A1.23,1.23,0,0,0,16.92,22.34Z"/>
<path d="M19.72,17.25l-.06-.18-.08-.16-.12-.14a.92.92,0,0,0-1.32,0l-.12.14-.08.16a1.27,1.27,0,0,0,0,.18.6.6,0,0,0,0,.19.92.92,0,0,0,.07.35,1,1,0,0,0,.21.3.82.82,0,0,0,.3.21,1,1,0,0,0,.36.07l.18,0,.18-.06.16-.08a.59.59,0,0,0,.14-.12.82.82,0,0,0,.21-.3.92.92,0,0,0,.07-.35A1.23,1.23,0,0,0,19.72,17.25Z"/>
<path d="M14.12,17.25l-.06-.18L14,16.92l-.12-.14a.92.92,0,0,0-1.32,0l-.12.14-.08.16a1.27,1.27,0,0,0,0,.18.6.6,0,0,0,0,.19.92.92,0,0,0,.07.35,1,1,0,0,0,.21.3.82.82,0,0,0,.3.21,1,1,0,0,0,.36.07l.18,0,.18-.06.16-.08a.59.59,0,0,0,.14-.12.82.82,0,0,0,.21-.3.92.92,0,0,0,.07-.35A1.23,1.23,0,0,0,14.12,17.25Z"/>
<path d="M24.39,22.34l-.06-.18L24.25,22l-.12-.14a.92.92,0,0,0-1.32,0l-.12.14-.08.16a1.27,1.27,0,0,0,0,.18.6.6,0,0,0,0,.19.92.92,0,0,0,.07.35,1,1,0,0,0,.21.3.82.82,0,0,0,.3.21,1,1,0,0,0,.36.07l.18,0,.18-.06L24,23.3a.59.59,0,0,0,.14-.12.82.82,0,0,0,.21-.3.92.92,0,0,0,.07-.35A1.23,1.23,0,0,0,24.39,22.34Z"/>
<path d="M7.6,17.86a.93.93,0,0,0,.93-.93V16a2.34,2.34,0,0,0,1.86.95,2.61,2.61,0,0,0,2.15-1.31c.35-.47.46-.56.65-.56s.3.09.65.56A2.61,2.61,0,0,0,16,16.93a2.61,2.61,0,0,0,2.15-1.31c.35-.47.46-.56.65-.56s.3.09.66.56a2.61,2.61,0,0,0,2.15,1.31,2.35,2.35,0,0,0,1.87-1v.95a.93.93,0,1,0,1.87,0V13.2a2.8,2.8,0,0,0-1.86-2.62v-2l.39-.39h0a3.74,3.74,0,0,0,0-5.28l-.66-.66a.93.93,0,0,0-1.32,0l-.66.66a3.74,3.74,0,0,0,0,5.28l.39.39V10.4H16.94V8.6l.39-.39a3.74,3.74,0,0,0,0-5.28l-.66-.66a.93.93,0,0,0-1.32,0l-.66.66a3.73,3.73,0,0,0,0,5.28l.39.39V10.4H10.4V8.6l.39-.39a3.73,3.73,0,0,0,0-5.28l-.66-.66a.93.93,0,0,0-1.32,0l-.66.66a3.74,3.74,0,0,0,0,5.28l.39.39v2A2.8,2.8,0,0,0,6.67,13.2v3.73A.93.93,0,0,0,7.6,17.86ZM16,4.26A1.87,1.87,0,0,1,16,6.9a1.87,1.87,0,0,1,0-2.64Zm6.54,0h0a1.87,1.87,0,0,1,0,2.64h0A1.87,1.87,0,0,1,22.54,4.26Zm-13.07,0a1.87,1.87,0,0,1,0,2.64A1.87,1.87,0,0,1,9.47,4.26Zm0,8H22.53a.93.93,0,0,1,.93.93v.21a3.29,3.29,0,0,0-1.21,1.1c-.35.47-.46.56-.66.56s-.3-.09-.66-.56a2.61,2.61,0,0,0-2.15-1.31,2.61,2.61,0,0,0-2.15,1.31c-.35.47-.46.56-.65.56s-.3-.09-.65-.56a2.61,2.61,0,0,0-2.15-1.31A2.61,2.61,0,0,0,11,14.5c-.35.47-.46.56-.65.56s-.3-.09-.65-.56a3.29,3.29,0,0,0-1.21-1.1V13.2A.93.93,0,0,1,9.47,12.26Z"/>
<path d="M29.07,28.13h-.93V21.6a2.8,2.8,0,0,0-2.8-2.8H6.67a2.8,2.8,0,0,0-2.8,2.8v6.53H2.93a.93.93,0,1,0,0,1.87H29.07a.93.93,0,1,0,0-1.87ZM6.67,20.67H25.33a.93.93,0,0,1,.93.93v1.07a3.78,3.78,0,0,0-1.6,1.07c-.46.46-.68.66-1.21.66s-.75-.2-1.21-.66a3.25,3.25,0,0,0-5.05,0c-.46.46-.68.66-1.21.66s-.75-.2-1.21-.66a3.25,3.25,0,0,0-5.05,0c-.46.46-.68.66-1.2.66s-.75-.2-1.21-.66a3.78,3.78,0,0,0-1.59-1.07V21.6A.93.93,0,0,1,6.67,20.67Zm-.93,7.46V24.8l.27.26a3.25,3.25,0,0,0,5.05,0c.46-.46.68-.66,1.2-.66s.75.2,1.21.66a3.25,3.25,0,0,0,5.05,0c.46-.46.68-.66,1.21-.66s.75.2,1.21.66a3.25,3.25,0,0,0,5.06,0l.28-.27v3.34Z"/>
</g>
</svg>