<svg xmlns="http://www.w3.org/2000/svg" xmlns:xlink="http://www.w3.org/1999/xlink" version="1.1" width="256" height="256" viewBox="0 0 256 256" xml:space="preserve">

<defs>
</defs>
<g style="stroke: none; stroke-width: 0; stroke-dasharray: none; stroke-linecap: butt; stroke-linejoin: miter; stroke-miterlimit: 10; fill: none; fill-rule: nonzero; opacity: 1;" transform="translate(1.4065934065934016 1.4065934065934016) scale(2.81 2.81)" >
	<path d="M 88 32.435 H 2 c -1.104 0 -2 -0.896 -2 -2 v -8.713 c 0 -4.628 3.766 -8.394 8.394 -8.394 h 73.212 c 4.628 0 8.394 3.766 8.394 8.394 v 8.713 C 90 31.54 89.104 32.435 88 32.435 z M 4 28.435 h 82 v -6.713 c 0 -2.423 -1.971 -4.394 -4.394 -4.394 H 8.394 C 5.971 17.328 4 19.299 4 21.722 V 28.435 z" style="stroke: none; stroke-width: 1; stroke-dasharray: none; stroke-linecap: butt; stroke-linejoin: miter; stroke-miterlimit: 10; fill: rgb(251,175,57); fill-rule: nonzero; opacity: 1;" transform=" matrix(1 0 0 1 0 0) " stroke-linecap="round" />
	<path d="M 81.606 83.042 H 8.394 C 3.766 83.042 0 79.276 0 74.647 V 30.435 c 0 -1.104 0.896 -2 2 -2 h 86 c 1.104 0 2 0.896 2 2 v 44.212 C 90 79.276 86.234 83.042 81.606 83.042 z M 4 32.435 v 42.212 c 0 2.423 1.971 4.395 4.394 4.395 h 73.212 c 2.423 0 4.394 -1.972 4.394 -4.395 V 32.435 H 4 z" style="stroke: none; stroke-width: 1; stroke-dasharray: none; stroke-linecap: butt; stroke-linejoin: miter; stroke-miterlimit: 10; fill: rgb(251,175,57); fill-rule: nonzero; opacity: 1;" transform=" matrix(1 0 0 1 0 0) " stroke-linecap="round" />
	<path d="M 20.15 23.699 c -1.104 0 -2 -0.896 -2 -2 V 8.958 c 0 -1.104 0.896 -2 2 -2 s 2 0.896 2 2 v 12.741 C 22.15 22.803 21.255 23.699 20.15 23.699 z" style="stroke: none; stroke-width: 1; stroke-dasharray: none; stroke-linecap: butt; stroke-linejoin: miter; stroke-miterlimit: 10; fill: rgb(251,175,57); fill-rule: nonzero; opacity: 1;" transform=" matrix(1 0 0 1 0 0) " stroke-linecap="round" />
	<path d="M 69.85 23.699 c -1.104 0 -2 -0.896 -2 -2 V 8.958 c 0 -1.104 0.896 -2 2 -2 s 2 0.896 2 2 v 12.741 C 71.85 22.803 70.954 23.699 69.85 23.699 z" style="stroke: none; stroke-width: 1; stroke-dasharray: none; stroke-linecap: butt; stroke-linejoin: miter; stroke-miterlimit: 10; fill: rgb(251,175,57); fill-rule: nonzero; opacity: 1;" transform=" matrix(1 0 0 1 0 0) " stroke-linecap="round" />
	<path d="M 16.133 45.04 h -1.432 c -0.709 0 -1.284 -0.575 -1.284 -1.284 v -1.432 c 0 -0.709 0.575 -1.284 1.284 -1.284 h 1.432 c 0.709 0 1.284 0.575 1.284 1.284 v 1.432 C 17.417 44.465 16.843 45.04 16.133 45.04 z" style="stroke: none; stroke-width: 1; stroke-dasharray: none; stroke-linecap: butt; stroke-linejoin: miter; stroke-miterlimit: 10; fill: rgb(251,175,57); fill-rule: nonzero; opacity: 1;" transform=" matrix(1 0 0 1 0 0) " stroke-linecap="round" />
	<path d="M 27.966 45.04 h -1.432 c -0.709 0 -1.284 -0.575 -1.284 -1.284 v -1.432 c 0 -0.709 0.575 -1.284 1.284 -1.284 h 1.432 c 0.709 0 1.284 0.575 1.284 1.284 v 1.432 C 29.25 44.465 28.676 45.04 27.966 45.04 z" style="stroke: none; stroke-width: 1; stroke-dasharray: none; stroke-linecap: butt; stroke-linejoin: miter; stroke-miterlimit: 10; fill: rgb(251,175,57); fill-rule: nonzero; opacity: 1;" transform=" matrix(1 0 0 1 0 0) " stroke-linecap="round" />
	<path d="M 39.8 45.04 h -1.432 c -0.709 0 -1.284 -0.575 -1.284 -1.284 v -1.432 c 0 -0.709 0.575 -1.284 1.284 -1.284 H 39.8 c 0.709 0 1.284 0.575 1.284 1.284 v 1.432 C 41.083 44.465 40.509 45.04 39.8 45.04 z" style="stroke: none; stroke-width: 1; stroke-dasharray: none; stroke-linecap: butt; stroke-linejoin: miter; stroke-miterlimit: 10; fill: rgb(251,175,57); fill-rule: nonzero; opacity: 1;" transform=" matrix(1 0 0 1 0 0) " stroke-linecap="round" />
	<path d="M 51.633 45.04 H 50.2 c -0.709 0 -1.284 -0.575 -1.284 -1.284 v -1.432 c 0 -0.709 0.575 -1.284 1.284 -1.284 h 1.432 c 0.709 0 1.284 0.575 1.284 1.284 v 1.432 C 52.917 44.465 52.342 45.04 51.633 45.04 z" style="stroke: none; stroke-width: 1; stroke-dasharray: none; stroke-linecap: butt; stroke-linejoin: miter; stroke-miterlimit: 10; fill: rgb(251,175,57); fill-rule: nonzero; opacity: 1;" transform=" matrix(1 0 0 1 0 0) " stroke-linecap="round" />
	<path d="M 63.466 45.04 h -1.432 c -0.709 0 -1.284 -0.575 -1.284 -1.284 v -1.432 c 0 -0.709 0.575 -1.284 1.284 -1.284 h 1.432 c 0.709 0 1.284 0.575 1.284 1.284 v 1.432 C 64.75 44.465 64.175 45.04 63.466 45.04 z" style="stroke: none; stroke-width: 1; stroke-dasharray: none; stroke-linecap: butt; stroke-linejoin: miter; stroke-miterlimit: 10; fill: rgb(251,175,57); fill-rule: nonzero; opacity: 1;" transform=" matrix(1 0 0 1 0 0) " stroke-linecap="round" />
	<path d="M 75.299 45.04 h -1.432 c -0.709 0 -1.284 -0.575 -1.284 -1.284 v -1.432 c 0 -0.709 0.575 -1.284 1.284 -1.284 h 1.432 c 0.709 0 1.284 0.575 1.284 1.284 v 1.432 C 76.583 44.465 76.008 45.04 75.299 45.04 z" style="stroke: none; stroke-width: 1; stroke-dasharray: none; stroke-linecap: butt; stroke-linejoin: miter; stroke-miterlimit: 10; fill: rgb(251,175,57); fill-rule: nonzero; opacity: 1;" transform=" matrix(1 0 0 1 0 0) " stroke-linecap="round" />
	<path d="M 16.133 56.873 h -1.432 c -0.709 0 -1.284 -0.575 -1.284 -1.284 v -1.432 c 0 -0.709 0.575 -1.284 1.284 -1.284 h 1.432 c 0.709 0 1.284 0.575 1.284 1.284 v 1.432 C 17.417 56.298 16.843 56.873 16.133 56.873 z" style="stroke: none; stroke-width: 1; stroke-dasharray: none; stroke-linecap: butt; stroke-linejoin: miter; stroke-miterlimit: 10; fill: rgb(251,175,57); fill-rule: nonzero; opacity: 1;" transform=" matrix(1 0 0 1 0 0) " stroke-linecap="round" />
	<path d="M 27.966 56.873 h -1.432 c -0.709 0 -1.284 -0.575 -1.284 -1.284 v -1.432 c 0 -0.709 0.575 -1.284 1.284 -1.284 h 1.432 c 0.709 0 1.284 0.575 1.284 1.284 v 1.432 C 29.25 56.298 28.676 56.873 27.966 56.873 z" style="stroke: none; stroke-width: 1; stroke-dasharray: none; stroke-linecap: butt; stroke-linejoin: miter; stroke-miterlimit: 10; fill: rgb(251,175,57); fill-rule: nonzero; opacity: 1;" transform=" matrix(1 0 0 1 0 0) " stroke-linecap="round" />
	<path d="M 39.8 56.873 h -1.432 c -0.709 0 -1.284 -0.575 -1.284 -1.284 v -1.432 c 0 -0.709 0.575 -1.284 1.284 -1.284 H 39.8 c 0.709 0 1.284 0.575 1.284 1.284 v 1.432 C 41.083 56.298 40.509 56.873 39.8 56.873 z" style="stroke: none; stroke-width: 1; stroke-dasharray: none; stroke-linecap: butt; stroke-linejoin: miter; stroke-miterlimit: 10; fill: rgb(251,175,57); fill-rule: nonzero; opacity: 1;" transform=" matrix(1 0 0 1 0 0) " stroke-linecap="round" />
	<path d="M 51.633 56.873 H 50.2 c -0.709 0 -1.284 -0.575 -1.284 -1.284 v -1.432 c 0 -0.709 0.575 -1.284 1.284 -1.284 h 1.432 c 0.709 0 1.284 0.575 1.284 1.284 v 1.432 C 52.917 56.298 52.342 56.873 51.633 56.873 z" style="stroke: none; stroke-width: 1; stroke-dasharray: none; stroke-linecap: butt; stroke-linejoin: miter; stroke-miterlimit: 10; fill: rgb(251,175,57); fill-rule: nonzero; opacity: 1;" transform=" matrix(1 0 0 1 0 0) " stroke-linecap="round" />
	<path d="M 63.466 56.873 h -1.432 c -0.709 0 -1.284 -0.575 -1.284 -1.284 v -1.432 c 0 -0.709 0.575 -1.284 1.284 -1.284 h 1.432 c 0.709 0 1.284 0.575 1.284 1.284 v 1.432 C 64.75 56.298 64.175 56.873 63.466 56.873 z" style="stroke: none; stroke-width: 1; stroke-dasharray: none; stroke-linecap: butt; stroke-linejoin: miter; stroke-miterlimit: 10; fill: rgb(251,175,57); fill-rule: nonzero; opacity: 1;" transform=" matrix(1 0 0 1 0 0) " stroke-linecap="round" />
	<path d="M 75.299 56.873 h -1.432 c -0.709 0 -1.284 -0.575 -1.284 -1.284 v -1.432 c 0 -0.709 0.575 -1.284 1.284 -1.284 h 1.432 c 0.709 0 1.284 0.575 1.284 1.284 v 1.432 C 76.583 56.298 76.008 56.873 75.299 56.873 z" style="stroke: none; stroke-width: 1; stroke-dasharray: none; stroke-linecap: butt; stroke-linejoin: miter; stroke-miterlimit: 10; fill: rgb(251,175,57); fill-rule: nonzero; opacity: 1;" transform=" matrix(1 0 0 1 0 0) " stroke-linecap="round" />
	<path d="M 16.133 68.706 h -1.432 c -0.709 0 -1.284 -0.575 -1.284 -1.284 V 65.99 c 0 -0.709 0.575 -1.284 1.284 -1.284 h 1.432 c 0.709 0 1.284 0.575 1.284 1.284 v 1.432 C 17.417 68.132 16.843 68.706 16.133 68.706 z" style="stroke: none; stroke-width: 1; stroke-dasharray: none; stroke-linecap: butt; stroke-linejoin: miter; stroke-miterlimit: 10; fill: rgb(251,175,57); fill-rule: nonzero; opacity: 1;" transform=" matrix(1 0 0 1 0 0) " stroke-linecap="round" />
	<path d="M 27.966 68.706 h -1.432 c -0.709 0 -1.284 -0.575 -1.284 -1.284 V 65.99 c 0 -0.709 0.575 -1.284 1.284 -1.284 h 1.432 c 0.709 0 1.284 0.575 1.284 1.284 v 1.432 C 29.25 68.132 28.676 68.706 27.966 68.706 z" style="stroke: none; stroke-width: 1; stroke-dasharray: none; stroke-linecap: butt; stroke-linejoin: miter; stroke-miterlimit: 10; fill: rgb(251,175,57); fill-rule: nonzero; opacity: 1;" transform=" matrix(1 0 0 1 0 0) " stroke-linecap="round" />
	<path d="M 39.8 68.706 h -1.432 c -0.709 0 -1.284 -0.575 -1.284 -1.284 V 65.99 c 0 -0.709 0.575 -1.284 1.284 -1.284 H 39.8 c 0.709 0 1.284 0.575 1.284 1.284 v 1.432 C 41.083 68.132 40.509 68.706 39.8 68.706 z" style="stroke: none; stroke-width: 1; stroke-dasharray: none; stroke-linecap: butt; stroke-linejoin: miter; stroke-miterlimit: 10; fill: rgb(251,175,57); fill-rule: nonzero; opacity: 1;" transform=" matrix(1 0 0 1 0 0) " stroke-linecap="round" />
	<path d="M 51.633 68.706 H 50.2 c -0.709 0 -1.284 -0.575 -1.284 -1.284 V 65.99 c 0 -0.709 0.575 -1.284 1.284 -1.284 h 1.432 c 0.709 0 1.284 0.575 1.284 1.284 v 1.432 C 52.917 68.132 52.342 68.706 51.633 68.706 z" style="stroke: none; stroke-width: 1; stroke-dasharray: none; stroke-linecap: butt; stroke-linejoin: miter; stroke-miterlimit: 10; fill: rgb(251,175,57); fill-rule: nonzero; opacity: 1;" transform=" matrix(1 0 0 1 0 0) " stroke-linecap="round" />
	<path d="M 63.466 68.706 h -1.432 c -0.709 0 -1.284 -0.575 -1.284 -1.284 V 65.99 c 0 -0.709 0.575 -1.284 1.284 -1.284 h 1.432 c 0.709 0 1.284 0.575 1.284 1.284 v 1.432 C 64.75 68.132 64.175 68.706 63.466 68.706 z" style="stroke: none; stroke-width: 1; stroke-dasharray: none; stroke-linecap: butt; stroke-linejoin: miter; stroke-miterlimit: 10; fill: rgb(251,175,57); fill-rule: nonzero; opacity: 1;" transform=" matrix(1 0 0 1 0 0) " stroke-linecap="round" />
</g>
</svg>