<svg xmlns="http://www.w3.org/2000/svg" xmlns:xlink="http://www.w3.org/1999/xlink" version="1.1"
    width="256" height="256" viewBox="0 0 256 256" xml:space="preserve">

    <defs>
    </defs>
    <g style="stroke: none; stroke-width: 0; stroke-dasharray: none; stroke-linecap: butt; stroke-linejoin: miter; stroke-miterlimit: 10; fill: none; fill-rule: nonzero; opacity: 1;" transform="translate(1.4065934065934016 1.4065934065934016) scale(2.81 2.81)" >                                    
        <!-- Star -->
        <polygon
            points="79.6,1.53 78.33,7.15 82.24,11.39 76.51,11.92 73.69,16.94 71.41,11.65 65.76,10.52 70.09,6.72 69.42,1 74.37,3.94 "
            style="stroke: none; stroke-width: 1; stroke-dasharray: none; stroke-linecap: butt; stroke-linejoin: miter; stroke-miterlimit: 10; fill: rgb(249,212,56); fill-rule: nonzero; opacity: 1;"
            transform="  matrix(1 0 0 1 0 0) " />
        <path
            d="M 73.689 17.943 c -0.018 0 -0.035 0 -0.052 -0.001 c -0.381 -0.02 -0.717 -0.254 -0.867 -0.604 l -2.069 -4.811 l -5.136 -1.023 c -0.373 -0.075 -0.672 -0.354 -0.771 -0.722 s 0.021 -0.759 0.307 -1.01 l 3.937 -3.454 l -0.614 -5.201 c -0.045 -0.378 0.129 -0.749 0.448 -0.956 c 0.321 -0.208 0.73 -0.215 1.056 -0.021 l 4.502 2.676 l 4.756 -2.191 c 0.343 -0.159 0.753 -0.109 1.047 0.131 c 0.296 0.24 0.431 0.626 0.347 0.998 l -1.154 5.108 l 3.554 3.847 c 0.259 0.28 0.336 0.682 0.199 1.037 s -0.463 0.603 -0.842 0.637 l -5.215 0.481 l -2.56 4.568 C 74.385 17.749 74.05 17.943 73.689 17.943 z M 67.943 9.938 l 3.664 0.73 c 0.323 0.064 0.593 0.284 0.724 0.586 l 1.477 3.433 l 1.826 -3.259 c 0.16 -0.287 0.452 -0.477 0.78 -0.507 l 3.721 -0.343 L 77.6 7.833 c -0.224 -0.242 -0.313 -0.578 -0.241 -0.899 l 0.823 -3.645 l -3.394 1.563 c -0.299 0.138 -0.647 0.12 -0.929 -0.049 l -3.212 -1.909 l 0.438 3.71 C 71.124 6.932 71 7.257 70.752 7.474 L 67.943 9.938 z"
            style="stroke: none; stroke-width: 1; stroke-dasharray: none; stroke-linecap: butt; stroke-linejoin: miter; stroke-miterlimit: 10; fill: rgb(40,66,104); fill-rule: nonzero; opacity: 1;"
            transform=" matrix(1 0 0 1 0 0) " stroke-linecap="round" />
        <path
            d="M 46.531 40.967 c -0.397 0 -0.773 -0.239 -0.929 -0.63 c -0.204 -0.513 0.046 -1.095 0.559 -1.299 c 5.259 -2.094 8.847 -6.396 10.107 -12.116 c 0.604 -5.633 2.345 -9.609 8.83 -10.717 c 0.546 -0.093 1.061 0.274 1.153 0.817 c 0.094 0.544 -0.272 1.061 -0.817 1.154 c -4.685 0.8 -6.564 3.158 -7.184 9.01 c -0.004 0.036 -0.01 0.072 -0.017 0.107 c -1.376 6.324 -5.507 11.281 -11.333 13.602 C 46.78 40.944 46.654 40.967 46.531 40.967 z"
            style="stroke: none; stroke-width: 1; stroke-dasharray: none; stroke-linecap: butt; stroke-linejoin: miter; stroke-miterlimit: 10; fill: rgb(40,66,104); fill-rule: nonzero; opacity: 1;"
            transform=" matrix(1 0 0 1 0 0) " stroke-linecap="round" />
    </g>
    </svg>