<?xml version="1.0" encoding="iso-8859-1"?>

<!DOCTYPE svg PUBLIC "-//W3C//DTD SVG 1.1//EN" "http://www.w3.org/Graphics/SVG/1.1/DTD/svg11.dtd">
<!-- Uploaded to: SVG Repo, www.svgrepo.com, Generator: SVG Repo Mixer Tools -->
<svg version="1.1" id="_x34_" xmlns="http://www.w3.org/2000/svg" xmlns:xlink="http://www.w3.org/1999/xlink" 
	 viewBox="0 0 512 512"  xml:space="preserve">
<g>
	<rect x="14.327" y="248.362" style="fill:#AA9B5D;" width="119.35" height="255.492"/>
	<path style="fill:#C85629;" d="M126.346,173.66v3.932H74.835c-0.533,0-0.8,0-0.8,0s-23.523,0-52.311,0v-1.999
		c0.2-54.711,8.929-99.625,19.925-130.279C52.111,16.327,64.573,0,74.035,0c0.266,0,0.533,0,0.8,0.067c0.067,0,0.133,0,0.2,0.067
		c0.533,0,1.133,0.133,1.666,0.334c0.666,0.133,1.266,0.4,1.932,0.733c0.666,0.266,1.266,0.666,1.932,1.066
		c0.067,0.067,0.067,0.067,0.133,0.133c0.666,0.399,1.266,0.866,1.932,1.466c0.667,0.533,1.333,1.066,1.999,1.733
		c3.332,3.265,6.797,7.93,10.196,13.927c0.733,1.267,1.466,2.599,2.199,3.998c0,0,0.067,0,0.067,0.067
		c0.666,1.399,1.399,2.798,2.132,4.265c0.8,1.799,1.666,3.598,2.532,5.531c1.2,2.799,2.332,5.732,3.599,8.864
		c0.733,1.999,1.466,4.131,2.199,6.264c1.332,3.866,2.599,7.863,3.798,12.129c5.065,17.458,9.33,38.25,11.995,61.907
		c0.466,4.265,0.866,8.597,1.266,12.995c0.333,4.198,0.666,8.463,0.933,12.861c0.267,5.398,0.533,10.929,0.667,16.526v0.933
		C126.28,168.462,126.346,171.061,126.346,173.66z"/>
	<rect x="20.991" y="175.593" style="fill:#F6DB69;" width="106.089" height="40.583"/>
	<g>
		<path style="fill:#CAB65A;" d="M138.608,237.7c0.333,3.731-2.865,7.33-7.264,7.33c-22.523,0-39.583,0.067-56.509,0.067
			c-17.593,0-35.052,0-58.508-0.067c-4.398,0-7.597-3.599-7.264-7.33c0-0.8,0.2-1.533,0.6-2.332
			c3.398-6.997,5.264-10.463,8.929-17.459c0.6-1.066,1.4-1.933,2.399-2.532c1.2-0.866,2.666-1.266,4.132-1.333
			c19.925-0.067,34.785-0.067,49.713-0.067c14.261,0,28.654,0,47.713,0.067c1.666,0.067,3.265,0.599,4.531,1.599v0.067
			c0.133,0,0.266,0.133,0.4,0.266c0.133,0.133,0.333,0.267,0.467,0.466c0.466,0.467,0.866,0.934,1.133,1.467
			c3.665,6.997,5.531,10.462,8.929,17.459c0.2,0.334,0.333,0.733,0.4,1.132C138.541,236.9,138.608,237.3,138.608,237.7z"/>
	</g>
	<path style="fill:#F6DB69;" d="M149.67,511.984H0l4.398-2.866l4.198-2.733c0-3.065,2.532-5.464,5.731-5.597h120.816
		c3.265,0,5.931,2.466,5.931,5.597L149.67,511.984z"/>
	<rect x="8.929" y="237.7" style="fill:#F6DB69;" width="130.212" height="255.558"/>
	<path style="opacity:0.06;fill:#FFFFFF;" d="M47.717,41.764c-5.554,14.82-5.026,28.555,1.178,30.678
		c6.204,2.123,15.736-8.171,21.29-22.991c5.554-14.82,5.026-28.555-1.178-30.678S53.27,26.943,47.717,41.764z"/>
	<path style="opacity:0.1;fill:#040000;" d="M141.053,506.378c0-3.091-2.647-5.621-5.884-5.621h-1.461v-7.496h5.446V237.727h-0.551
		c-0.051-0.794-0.201-1.593-0.585-2.374c-3.429-6.969-5.243-10.458-8.959-17.444c-0.484-0.91-1.204-1.641-2.013-2.258v-40.076h-0.73
		C125.917,70.727,94.399,1.937,74.835,0.093V512h74.867L141.053,506.378z"/>
</g>
</svg>